REM DIRINDEX 1\2\4,1\2\5,1\2\6,1\2\7,1\3\8,1\3\9
REM DIRNAME cjc037,folder01,folder02,folder03,folder04,folder05,folder06,folder07,folder08
TITLE ""
FILE "Disc1Track05.mp3" MP3
  TRACK 01 AUDIO
    TITLE "0:"
    INDEX 01 00:00:00
  TRACK 02 AUDIO
    TITLE "4:cjc037_0237"
    INDEX 01 00:00:05
  TRACK 03 AUDIO
    TITLE "0:"
    INDEX 01 00:01:38
  TRACK 04 AUDIO
    TITLE "4:cjc037_0238"
    INDEX 01 00:02:40
  TRACK 05 AUDIO
    TITLE "0:"
    INDEX 01 00:04:03
  TRACK 06 AUDIO
    TITLE "5:cjc037_0239"
    INDEX 01 00:04:56
  TRACK 07 AUDIO
    TITLE "0:"
    INDEX 01 00:08:32
  TRACK 08 AUDIO
    TITLE "6:cjc037_0240"
    INDEX 01 00:11:68
  TRACK 09 AUDIO
    TITLE "0:"
    INDEX 01 00:15:15
  TRACK 10 AUDIO
    TITLE "7:cjc037_0241"
    INDEX 01 00:18:54
  TRACK 11 AUDIO
    TITLE "0:"
    INDEX 01 00:21:19
  TRACK 12 AUDIO
    TITLE "4:cjc037_0242"
    INDEX 01 00:23:53
  TRACK 13 AUDIO
    TITLE "0:"
    INDEX 01 00:24:72
  TRACK 14 AUDIO
    TITLE "5:cjc037_0243"
    INDEX 01 00:25:48
  TRACK 15 AUDIO
    TITLE "0:"
    INDEX 01 00:28:55
  TRACK 16 AUDIO
    TITLE "6:cjc037_0244"
    INDEX 01 00:32:15
  TRACK 17 AUDIO
    TITLE "0:"
    INDEX 01 00:34:53
  TRACK 18 AUDIO
    TITLE "7:cjc037_0245"
    INDEX 01 00:38:16
  TRACK 19 AUDIO
    TITLE "0:"
    INDEX 01 00:40:09
  TRACK 20 AUDIO
    TITLE "4:cjc037_0246"
    INDEX 01 00:42:45
  TRACK 21 AUDIO
    TITLE "0:"
    INDEX 01 00:44:14
  TRACK 22 AUDIO
    TITLE "5:cjc037_0247"
    INDEX 01 00:44:67
  TRACK 23 AUDIO
    TITLE "0:"
    INDEX 01 00:48:48
  TRACK 24 AUDIO
    TITLE "6:cjc037_0248"
    INDEX 01 00:52:14
  TRACK 25 AUDIO
    TITLE "0:"
    INDEX 01 00:56:02
  TRACK 26 AUDIO
    TITLE "7:cjc037_0249"
    INDEX 01 00:59:38
  TRACK 27 AUDIO
    TITLE "0:"
    INDEX 01 01:02:32
  TRACK 28 AUDIO
    TITLE "4:cjc037_0250"
    INDEX 01 01:04:70
  TRACK 29 AUDIO
    TITLE "0:"
    INDEX 01 01:06:28
  TRACK 30 AUDIO
    TITLE "5:cjc037_0251"
    INDEX 01 01:07:08
  TRACK 31 AUDIO
    TITLE "0:"
    INDEX 01 01:10:31
  TRACK 32 AUDIO
    TITLE "6:cjc037_0252"
    INDEX 01 01:13:67
  TRACK 33 AUDIO
    TITLE "0:"
    INDEX 01 01:17:02
  TRACK 34 AUDIO
    TITLE "7:cjc037_0253"
    INDEX 01 01:20:36
  TRACK 35 AUDIO
    TITLE "0:"
    INDEX 01 01:22:56
  TRACK 36 AUDIO
    TITLE "4:cjc037_0254"
    INDEX 01 01:25:15
  TRACK 37 AUDIO
    TITLE "0:"
    INDEX 01 01:26:54
  TRACK 38 AUDIO
    TITLE "5:cjc037_0255"
    INDEX 01 01:27:32
  TRACK 39 AUDIO
    TITLE "0:"
    INDEX 01 01:31:10
  TRACK 40 AUDIO
    TITLE "6:cjc037_0256"
    INDEX 01 01:34:44
  TRACK 41 AUDIO
    TITLE "0:"
    INDEX 01 01:37:44
  TRACK 42 AUDIO
    TITLE "7:cjc037_0257"
    INDEX 01 01:41:01
  TRACK 43 AUDIO
    TITLE "0:"
    INDEX 01 01:43:23
  TRACK 44 AUDIO
    TITLE "4:cjc037_0258"
    INDEX 01 01:45:55
  TRACK 45 AUDIO
    TITLE "0:"
    INDEX 01 01:47:19
  TRACK 46 AUDIO
    TITLE "5:cjc037_0259"
    INDEX 01 01:47:72
  TRACK 47 AUDIO
    TITLE "0:"
    INDEX 01 01:51:32
  TRACK 48 AUDIO
    TITLE "6:cjc037_0260"
    INDEX 01 01:54:68
  TRACK 49 AUDIO
    TITLE "0:"
    INDEX 01 01:58:30
  TRACK 50 AUDIO
    TITLE "7:cjc037_0261"
    INDEX 01 02:01:66
  TRACK 51 AUDIO
    TITLE "0:"
    INDEX 01 02:04:33
  TRACK 52 AUDIO
    TITLE "4:cjc037_0262"
    INDEX 01 02:06:67
  TRACK 53 AUDIO
    TITLE "0:"
    INDEX 01 02:08:27
  TRACK 54 AUDIO
    TITLE "5:cjc037_0263"
    INDEX 01 02:09:05
  TRACK 55 AUDIO
    TITLE "0:"
    INDEX 01 02:11:72
  TRACK 56 AUDIO
    TITLE "6:cjc037_0264"
    INDEX 01 02:15:31
  TRACK 57 AUDIO
    TITLE "0:"
    INDEX 01 02:17:59
  TRACK 58 AUDIO
    TITLE "7:cjc037_0265"
    INDEX 01 02:21:18
  TRACK 59 AUDIO
    TITLE "0:"
    INDEX 01 02:23:03
  TRACK 60 AUDIO
    TITLE "4:cjc037_0266"
    INDEX 01 02:25:39
  TRACK 61 AUDIO
    TITLE "0:"
    INDEX 01 02:27:07
  TRACK 62 AUDIO
    TITLE "5:cjc037_0267"
    INDEX 01 02:27:58
  TRACK 63 AUDIO
    TITLE "0:"
    INDEX 01 02:31:30
  TRACK 64 AUDIO
    TITLE "6:cjc037_0268"
    INDEX 01 02:34:69
  TRACK 65 AUDIO
    TITLE "0:"
    INDEX 01 02:38:10
  TRACK 66 AUDIO
    TITLE "7:cjc037_0269"
    INDEX 01 02:41:44
  TRACK 67 AUDIO
    TITLE "0:"
    INDEX 01 02:43:74
  TRACK 68 AUDIO
    TITLE "4:cjc037_0270"
    INDEX 01 02:46:33
  TRACK 69 AUDIO
    TITLE "0:"
    INDEX 01 02:47:72
  TRACK 70 AUDIO
    TITLE "5:cjc037_0271"
    INDEX 01 02:48:50
  TRACK 71 AUDIO
    TITLE "0:"
    INDEX 01 02:52:61
  TRACK 72 AUDIO
    TITLE "6:cjc037_0272"
    INDEX 01 02:56:22
  TRACK 73 AUDIO
    TITLE "0:"
    INDEX 01 02:59:40
  TRACK 74 AUDIO
    TITLE "7:cjc037_0273"
    INDEX 01 03:03:01
  TRACK 75 AUDIO
    TITLE "0:"
    INDEX 01 03:05:27
  TRACK 76 AUDIO
    TITLE "4:cjc037_0274"
    INDEX 01 03:07:65
  TRACK 77 AUDIO
    TITLE "0:"
    INDEX 01 03:09:36
  TRACK 78 AUDIO
    TITLE "5:cjc037_0275"
    INDEX 01 03:10:14
  TRACK 79 AUDIO
    TITLE "0:"
    INDEX 01 03:14:47
  TRACK 80 AUDIO
    TITLE "6:cjc037_0276"
    INDEX 01 03:18:06
  TRACK 81 AUDIO
    TITLE "0:"
    INDEX 01 03:22:74
  TRACK 82 AUDIO
    TITLE "7:cjc037_0277"
    INDEX 01 03:26:31
  TRACK 83 AUDIO
    TITLE "0:"
    INDEX 01 03:30:11
  TRACK 84 AUDIO
    TITLE "4:cjc037_0278"
    INDEX 01 03:32:43
  TRACK 85 AUDIO
    TITLE "0:"
    INDEX 01 03:34:13
  TRACK 86 AUDIO
    TITLE "5:cjc037_0279"
    INDEX 01 03:34:64
  TRACK 87 AUDIO
    TITLE "0:"
    INDEX 01 03:38:42
  TRACK 88 AUDIO
    TITLE "6:cjc037_0280"
    INDEX 01 03:42:01
  TRACK 89 AUDIO
    TITLE "0:"
    INDEX 01 03:45:09
  TRACK 90 AUDIO
    TITLE "7:cjc037_0281"
    INDEX 01 03:48:46
  TRACK 91 AUDIO
    TITLE "0:"
    INDEX 01 03:51:09
  TRACK 92 AUDIO
    TITLE "4:cjc037_0282"
    INDEX 01 03:53:44
  TRACK 93 AUDIO
    TITLE "0:"
    INDEX 01 03:54:57
  TRACK 94 AUDIO
    TITLE "5:cjc037_0283"
    INDEX 01 03:55:35
  TRACK 95 AUDIO
    TITLE "0:"
    INDEX 01 03:58:09
  TRACK 96 AUDIO
    TITLE "6:cjc037_0284"
    INDEX 01 04:01:45
  TRACK 97 AUDIO
    TITLE "0:"
    INDEX 01 04:03:54
  TRACK 98 AUDIO
    TITLE "7:cjc037_0285"
    INDEX 01 04:07:16
  TRACK 99 AUDIO
    TITLE "0:"
    INDEX 01 04:08:67
  TRACK 100 AUDIO
    TITLE "4:cjc037_0286"
    INDEX 01 04:11:24
  TRACK 101 AUDIO
    TITLE "0:"
    INDEX 01 04:12:62
  TRACK 102 AUDIO
    TITLE "5:cjc037_0287"
    INDEX 01 04:13:38
  TRACK 103 AUDIO
    TITLE "0:"
    INDEX 01 04:17:64
  TRACK 104 AUDIO
    TITLE "6:cjc037_0288"
    INDEX 01 04:21:24
  TRACK 105 AUDIO
    TITLE "0:"
    INDEX 01 04:24:56
  TRACK 106 AUDIO
    TITLE "7:cjc037_0289"
    INDEX 01 04:28:18
  TRACK 107 AUDIO
    TITLE "0:"
    INDEX 01 04:30:58
  TRACK 108 AUDIO
    TITLE "4:cjc037_0290"
    INDEX 01 04:33:18
  TRACK 109 AUDIO
    TITLE "0:"
    INDEX 01 04:34:42
  TRACK 110 AUDIO
    TITLE "5:cjc037_0291"
    INDEX 01 04:35:22
  TRACK 111 AUDIO
    TITLE "0:"
    INDEX 01 04:40:47
  TRACK 112 AUDIO
    TITLE "6:cjc037_0292"
    INDEX 01 04:44:08
  TRACK 113 AUDIO
    TITLE "0:"
    INDEX 01 04:48:37
  TRACK 114 AUDIO
    TITLE "7:cjc037_0293"
    INDEX 01 04:51:72
  TRACK 115 AUDIO
    TITLE "0:"
    INDEX 01 04:55:29
  TRACK 116 AUDIO
    TITLE "4:cjc037_0294"
    INDEX 01 04:57:61
  TRACK 117 AUDIO
    TITLE "0:"
    INDEX 01 04:59:29
  TRACK 118 AUDIO
    TITLE "5:cjc037_0295"
    INDEX 01 05:00:07
  TRACK 119 AUDIO
    TITLE "0:"
    INDEX 01 05:05:04
  TRACK 120 AUDIO
    TITLE "6:cjc037_0296"
    INDEX 01 05:08:39
  TRACK 121 AUDIO
    TITLE "0:"
    INDEX 01 05:13:13
  TRACK 122 AUDIO
    TITLE "7:cjc037_0297"
    INDEX 01 05:16:45
  TRACK 123 AUDIO
    TITLE "0:"
    INDEX 01 05:20:07
  TRACK 124 AUDIO
    TITLE "4:cjc037_0298"
    INDEX 01 05:22:40
  TRACK 125 AUDIO
    TITLE "0:"
    INDEX 01 05:24:07
  TRACK 126 AUDIO
    TITLE "5:cjc037_0299"
    INDEX 01 05:24:56
  TRACK 127 AUDIO
    TITLE "0:"
    INDEX 01 05:28:11
  TRACK 128 AUDIO
    TITLE "6:cjc037_0300"
    INDEX 01 05:31:44
  TRACK 129 AUDIO
    TITLE "0:"
    INDEX 01 05:35:19
  TRACK 130 AUDIO
    TITLE "7:cjc037_0301"
    INDEX 01 05:38:52
  TRACK 131 AUDIO
    TITLE "0:"
    INDEX 01 05:41:39
  TRACK 132 AUDIO
    TITLE "4:cjc037_0302"
    INDEX 01 05:43:73
  TRACK 133 AUDIO
    TITLE "0:"
    INDEX 01 05:45:37
  TRACK 134 AUDIO
    TITLE "5:cjc037_0303"
    INDEX 01 05:46:13
  TRACK 135 AUDIO
    TITLE "0:"
    INDEX 01 05:50:24
  TRACK 136 AUDIO
    TITLE "6:cjc037_0304"
    INDEX 01 05:53:58
  TRACK 137 AUDIO
    TITLE "0:"
    INDEX 01 05:57:36
  TRACK 138 AUDIO
    TITLE "7:cjc037_0305"
    INDEX 01 06:01:00
  TRACK 139 AUDIO
    TITLE "0:"
    INDEX 01 06:03:70
